# xmcd
#
# Track frame offsets:
#	150
#	12182
#	32262
#	51017
#	65357
#	84110
#	116537
#	132075
#	154762
#	168470
#	181275
#	216732
#	235405
#	257137
#	274472
#
# Disc length: 4035 seconds
#
# Revision: 2
# Processed by: cddbd v1.5.2PL0 Copyright (c) Steve Scherf et al.
# Submitted via: audiograbber 1.83.01
#
DISCID=cb0fc10f
DTITLE=N° 1 DJ  Disco-Funk - Compilation Disco-Funk - CD 1 - Volume 4
DYEAR=2004
DGENRE=Disco-Funk
TTITLE0=01 - Imagination - Music and Lights
TTITLE1=02 - Grandmaster Flash - White Lines
TTITLE2=03 - Sharon Redd - Beat The Street
TTITLE3=04 - Vouge - Dancing The Night Away
TTITLE4=05 - D Train - You're The One For Me
TTITLE5=06 - Dynasty - I Dont Wanna Feel A Thing
TTITLE6=07 - The Real Thing - You To Me Are Everything
TTITLE7=08 - Johnny Guitar Watson - Real Mother For Ya
TTITLE8=09 - James Brown - it's too Funky in Here (live)
TTITLE9=10 - Roce Royce - Car Wash
TTITLE10=11 - Funkadelic - Knee deep
TTITLE11=12 - Cymande - Brothers On The Slide
TTITLE12=13 - Leroy Hutson - Lucky Fellow
TTITLE13=14 - Bobby Womack - Secrets
TTITLE14=15 - Joe Gutterman and Free Soul - I've Got So Much Trouble In My Mind
EXTD=
EXTT0=
EXTT1=
EXTT2=
EXTT3=
EXTT4=
EXTT5=
EXTT6=
EXTT7=
EXTT8=
EXTT9=
EXTT10=
EXTT11=
EXTT12=
EXTT13=
EXTT14=
PLAYORDER=
